<?xml version="1.0" encoding="utf-8"?>
<!-- Generator: Adobe Illustrator 16.0.0, SVG Export Plug-In . SVG Version: 6.00 Build 0)  -->
<!DOCTYPE svg PUBLIC "-//W3C//DTD SVG 1.1//EN" "http://www.w3.org/Graphics/SVG/1.1/DTD/svg11.dtd">
<svg version="1.1" id="图层_1" xmlns="http://www.w3.org/2000/svg" xmlns:xlink="http://www.w3.org/1999/xlink" x="0px" y="0px"
	 width="200px" height="200px" viewBox="0 0 200 200" enable-background="new 0 0 200 200" xml:space="preserve">
<path d="M138.984,75.74h42.069c3.304,0,5.792,1.679,5.792,5.224c0,3.546-2.873,5.225-6.178,5.225h-41.684
	c-3.305,0-5.986-1.679-5.986-5.225C132.998,77.419,135.68,75.74,138.984,75.74z"/>
<path d="M186.736,104.902c0,3.545-2.49,5.225-5.793,5.225h-33.038c-3.306,0-5.987-1.679-5.987-5.225
	c0-3.545,2.682-5.223,5.987-5.223h33.229C184.438,99.679,186.736,101.357,186.736,104.902z"/>
<path fill="none" stroke="#000000" stroke-width="4" stroke-miterlimit="10" d="M156.416,159.06c0,7.771-6.311,12.524-14.068,12.524
	H91.185H74.721H26.685c-7.756,0-14.067-4.754-14.067-12.524v-3.376c0-7.12,5.242-13.432,11.933-15.834l28.642-12.766
	c0,0,7.764-2.387,9.889-4.769c1.414-1.586,1.851-6.816,0.058-10.25c-1.792-3.433-16.304-22.322-16.304-38.166
	c0-25.551,16.795-46.265,37.512-46.265c20.717,0,37.512,20.714,37.512,46.265c0,16.542-16.285,34.753-17.625,39.233
	c-1.34,4.482-1.447,7.989,0.065,9.479c2.354,2.313,8.411,4.665,8.411,4.665l31.771,12.382c6.691,2.402,11.934,8.906,11.934,16.025
	V159.06L156.416,159.06z"/>
<path d="M181.039,132.676h-22.084c-3.305,0-5.986-1.679-5.986-5.225c0-3.545,2.682-5.224,5.986-5.224h22.275
	c3.306,0,5.791,1.679,5.791,5.224S184.344,132.676,181.039,132.676z"/>
</svg>
