<?xml version="1.0" standalone="no"?><!DOCTYPE svg PUBLIC "-//W3C//DTD SVG 1.1//EN" "http://www.w3.org/Graphics/SVG/1.1/DTD/svg11.dtd"><svg t="1588552192353" class="icon" viewBox="0 0 1024 1024" version="1.1" xmlns="http://www.w3.org/2000/svg" p-id="7313" xmlns:xlink="http://www.w3.org/1999/xlink" width="200" height="200"><defs><style type="text/css"></style></defs><path d="M512 221.090909c160.581818 0 290.909091 130.327273 290.909091 290.909091S672.581818 802.909091 512 802.909091 221.090909 672.581818 221.090909 512 351.418182 221.090909 512 221.090909M512 186.181818C332.8 186.181818 186.181818 332.8 186.181818 512s146.618182 325.818182 325.818182 325.818182 325.818182-146.618182 325.818182-325.818182S691.2 186.181818 512 186.181818z" fill="" p-id="7314"></path><path d="M595.781818 428.218182l-41.890909 125.672727-125.672727 41.890909 41.890909-125.672727 125.672727-41.890909M651.636364 372.363636z m0 0l-209.454546 69.818182-69.818182 209.454546 209.454546-69.818182 69.818182-209.454546z" fill="" p-id="7315"></path></svg>