<?xml version="1.0" encoding="utf-8"?>
<!-- Generator: Adobe Illustrator 16.0.0, SVG Export Plug-In . SVG Version: 6.00 Build 0)  -->
<!DOCTYPE svg PUBLIC "-//W3C//DTD SVG 1.1//EN" "http://www.w3.org/Graphics/SVG/1.1/DTD/svg11.dtd">
<svg version="1.1" id="图层_1" xmlns="http://www.w3.org/2000/svg" xmlns:xlink="http://www.w3.org/1999/xlink" x="0px" y="0px"
	 width="200px" height="200px" viewBox="0 0 200 200" enable-background="new 0 0 200 200" xml:space="preserve">
<path fill="#08C261" d="M125,92.5c11.25-7.5,18.75-21.25,18.75-36.25c0-23.75-20-43.75-43.75-43.75s-43.75,20-43.75,43.75
	c0,15,7.5,27.5,18.75,36.25c-28.75,11.25-50,41.25-50,76.25c0,3.75,0,8.75,1.25,13.75c0,2.5,2.5,5,6.25,5h135c2.5,0,6.25-2.5,6.25-5
	c1.25-5,1.25-8.75,1.25-13.75C175,133.75,153.75,103.75,125,92.5z M131.25,56.25 M68.75,56.25 M37.5,175v-6.25 M162.5,168.75"/>
</svg>
